<mxfile host="app.diagrams.net" modified="2024-03-08T12:07:49.127Z" agent="Mozilla/5.0 (Macintosh; Intel Mac OS X 10_15_7) AppleWebKit/537.36 (KHTML, like Gecko) Chrome/122.0.0.0 Safari/537.36" version="24.0.2" etag="bL4KHC3P32kGzcHUds1a" type="github">
  <diagram name="Page-1" id="LV64bVHhfXfquhGS6asy">
    <mxGraphModel>
      <root>
        <mxCell id="0" />
        <mxCell id="1" parent="0" />
      </root>
    </mxGraphModel>
  </diagram>
</mxfile>
